<svg xmlns="http://www.w3.org/2000/svg" width="48" height="48" viewBox="0 0 48 48">
    <g fill="none" fill-rule="evenodd">
        <path fill="none" d="M0 0h48v48H0z"/>
        <path stroke="#4070F4" stroke-linejoin="round" stroke-width="1.5" d="M42.87 23.76c0 10.555-8.555 19.11-19.11 19.11-10.554 0-19.11-8.555-19.11-19.11 0-10.554 8.556-19.11 19.11-19.11 10.555 0 19.11 8.556 19.11 19.11z"/>
        <path fill="#DFE6F2" d="M38.97 23.76c0 8.4-6.81 15.21-15.21 15.21-8.4 0-15.209-6.81-15.209-15.21 0-8.4 6.81-15.209 15.21-15.209 8.399 0 15.208 6.81 15.208 15.21"/>
        <path fill="#4070F4" d="M22.28 30.812l2.087-2.344a.059.059 0 0 0-.045-.098h-2.294a.06.06 0 0 1-.044-.02l-1.95-2.188a.06.06 0 0 1-.006-.069l3.255-5.589a.06.06 0 0 0 0-.059l-1.356-2.33a.06.06 0 0 0-.103 0l-4.823 8.282a.058.058 0 0 0 .007.069l3.872 4.346c.01.013.027.02.044.02h1.311a.057.057 0 0 0 .044-.02"/>
        <path fill="#4070F4" d="M22.353 17.209a.056.056 0 0 0 0 .059l1.407 2.417 3.732 6.407c.013.022.01.05-.007.068l-1.966 2.21-2.104 2.364a.058.058 0 0 0 .043.098h3.139a.059.059 0 0 0 .044-.02l3.872-4.346a.059.059 0 0 0 .006-.069L23.811 14.88a.06.06 0 0 0-.102 0l-1.356 2.33z"/>
    </g>
</svg>
