<svg xmlns="http://www.w3.org/2000/svg" xmlns:xlink="http://www.w3.org/1999/xlink" width="48" height="48" viewBox="0 0 48 48">
    <defs>
        <path id="a" d="M0 .29h29.214v39.053H0z"/>
        <path id="c" d="M.096.181h9.856v30.146H.096z"/>
    </defs>
    <g fill="none" fill-rule="evenodd">
        <g transform="translate(9 4.53)">
            <mask id="b" fill="#fff">
                <use xlink:href="#a"/>
            </mask>
            <path fill="#DFE6F2" d="M0 28.24v11.103h29.215v-11.2a5.082 5.082 0 0 1-3.504 1.42c-2.846 0-5.16-2.388-5.16-5.325 0-2.937 2.314-5.326 5.16-5.326 1.345 0 2.596.517 3.503 1.42V9.198H18.485c.845-.936 1.346-2.195 1.346-3.583 0-2.937-2.315-5.325-5.162-5.325-2.846 0-5.16 2.388-5.16 5.325 0 1.388.5 2.647 1.345 3.583H0V28.24z" mask="url(#b)"/>
        </g>
        <g transform="translate(28.858 13.547)">
            <mask id="d" fill="#fff">
                <use xlink:href="#c"/>
            </mask>
            <path fill="#4070F4" d="M9.952 30.327H8.761v-9.984a5.662 5.662 0 0 1-2.908.819c-3.174 0-5.757-2.665-5.757-5.94 0-3.275 2.583-5.94 5.757-5.94 1.05 0 2.049.278 2.908.8v-9.9h1.191v11.134c0 .247-.143.47-.363.567a.584.584 0 0 1-.646-.124c-.808-.805-1.905-1.248-3.09-1.248-2.518 0-4.565 2.113-4.565 4.71 0 2.598 2.047 4.711 4.565 4.711a4.518 4.518 0 0 0 3.097-1.254.58.58 0 0 1 .644-.114.615.615 0 0 1 .358.563v11.2z" mask="url(#d)"/>
        </g>
        <path fill="none" d="M0 0h48v48H0z"/>
    </g>
</svg>
