<svg xmlns="http://www.w3.org/2000/svg" width="48" height="48" viewBox="0 0 48 48">
    <g fill="none" fill-rule="evenodd">
        <path fill="#DFE6F2" d="M26.546 19.298c.86-3.133.048-6.634-2.482-9.213-3.08-3.087-7.71-3.893-11.457-2.257l5.657 5.527c.644.645.668 1.659.024 2.28l-2.316 2.212c-.62.621-1.694.598-2.339-.023l-5.776-5.436c-1.695 3.616-.86 8.061 2.363 11.01A10.329 10.329 0 0 0 15.758 26h4.07c1.074 1.013 6.17-5.274 6.17-5.274l.548-1.428z"/>
        <path fill="#DFE6F2" d="M17.82 23.234l5.658-5.657L42.57 36.669l-5.657 5.656z"/>
        <path fill="#4070F4" d="M25.998 27.263l-.137-.115 10.235-10.23 1.527.481L42 11.014 39.994 9l-6.382 4.371.455 1.556-10.212 10.207s3.05 3.06 2.143 2.129z"/>
        <path fill="#4070F4" d="M22.484 22.034l6.364 6.364L14 43.248l-6.364-6.364z"/>
        <path fill="#FFF" fill-opacity="0" d="M0 0h48v48H0z"/>
    </g>
</svg>
