<svg xmlns="http://www.w3.org/2000/svg" width="48" height="48" viewBox="0 0 48 48">
    <g fill="none" fill-rule="evenodd">
        <path fill="#DFE6F2" d="M6 42h36V6H6z"/>
        <path stroke="#4070F4" stroke-width="1.5" d="M8 40h32V8H8z"/>
        <path fill="#4070F4" d="M23.75 32a1.25 1.25 0 1 0 0-2.5 1.25 1.25 0 0 0 0 2.5zm3.121-10.726c0-1.548-1.234-2.28-2.836-2.28-1.534 0-2.745.685-3.226 2.147L19 20.166c.802-2.15 2.86-3.166 5.058-3.166C26.598 17 29 18.415 29 21.185c0 3.411-4.209 4.253-4.209 7.065h-2.129c0-3.564 4.21-4.339 4.21-6.976"/>
    </g>
</svg>
