<svg xmlns="http://www.w3.org/2000/svg" xmlns:xlink="http://www.w3.org/1999/xlink" viewBox="0 0 390.54 278.09"><defs><linearGradient id="linear-gradient" x1="71.09" y1="129.04" x2="758.99" y2="129.04" gradientUnits="userSpaceOnUse"><stop offset="0.08" stop-color="#fff" stop-opacity="0"/><stop offset="0.17" stop-color="#fefefe" stop-opacity="0.02"/><stop offset="0.27" stop-color="#fafbfd" stop-opacity="0.07"/><stop offset="0.37" stop-color="#f4f6fa" stop-opacity="0.17"/><stop offset="0.47" stop-color="#eceff6" stop-opacity="0.29"/><stop offset="0.57" stop-color="#e1e6f1" stop-opacity="0.46"/><stop offset="0.67" stop-color="#d4dbeb" stop-opacity="0.66"/><stop offset="0.77" stop-color="#c5cfe4" stop-opacity="0.89"/></linearGradient></defs><title>Home-HeroGate</title><g id="Layer_2" data-name="Layer 2"><g id="ILUSTRATION"><circle cx="99.48" cy="93.6" r="27.84" fill="none" stroke="#254898" stroke-miterlimit="10" stroke-width="0.5"/><rect x="258.18" y="164.85" width="18.72" height="18.72" transform="translate(446.31 438.73) rotate(-157.12)" stroke-width="0.5" stroke="#254898" stroke-linecap="round" stroke-linejoin="round" fill="#fff"/><polygon points="252.17 170.89 259.31 153.97 262.55 161.95 255.27 179.2 252.17 170.89" fill="#fff" stroke="#254898" stroke-linecap="round" stroke-linejoin="round" stroke-width="0.5"/><polygon points="259.31 153.97 262.55 161.95 279.8 169.23 276.59 161.34 259.31 153.97" fill="#dfe6f2" stroke="#254898" stroke-linecap="round" stroke-linejoin="round" stroke-width="0.5"/><rect x="292.97" y="96.55" width="11.93" height="11.93" transform="translate(447.73 381.31) rotate(-137.02)" fill="#fff" stroke="#254898" stroke-miterlimit="10" stroke-width="0.5"/><rect x="302.72" y="102.07" width="4.27" height="11.93" transform="translate(454.23 394.91) rotate(-137.02)" stroke-width="0.5" stroke="#254898" stroke-linecap="round" stroke-linejoin="round" fill="#dfe6f2"/><rect x="7.67" y="139.04" width="58.95" height="32.59" rx="16.29" fill="#254898" stroke="#254898" stroke-miterlimit="10" stroke-width="0.5"/><rect x="61.4" y="183.71" width="21.56" height="16.29" rx="8.15" fill="#254898" stroke="#254898" stroke-miterlimit="10" stroke-width="0.5"/><rect x="94.25" y="38.96" width="231.19" height="180.16" fill="url(#linear-gradient)"/><rect x="317.83" y="151.16" width="15.22" height="15.22" transform="translate(-14.89 282.43) rotate(-45.97)" stroke-width="0.5" stroke="#254898" stroke-linecap="round" stroke-linejoin="round" fill="#fff"/><polygon points="335.96 160.89 325.58 171.63 325.44 169.59 336.02 158.64 335.96 160.89" fill="#dfe6f2" stroke="#254898" stroke-linecap="round" stroke-linejoin="round" stroke-width="0.5"/><polygon points="325.58 171.63 325.65 169.5 314.7 158.93 314.64 160.97 325.58 171.63" fill="#fff" stroke="#254898" stroke-linecap="round" stroke-linejoin="round" stroke-width="0.5"/><rect x="221.15" y="48.13" width="25.9" height="25.9" transform="translate(230.91 -180.83) rotate(74.62)" fill="#fff" stroke="#254898" stroke-miterlimit="10" stroke-width="0.5"/><polygon points="235.88 82.77 260.38 76.03 250.02 70.14 225.04 77.01 235.88 82.77" fill="#dfe6f2" stroke="#254898" stroke-linecap="round" stroke-linejoin="round" stroke-width="0.5"/><polygon points="260.38 76.03 250.02 70.14 243.15 45.16 253.4 50.99 260.38 76.03" fill="#fff" stroke="#254898" stroke-linecap="round" stroke-linejoin="round" stroke-width="0.5"/><path d="M40.87,211.39H58.16a8.47,8.47,0,0,0,8.47-8.46v-3.18" fill="none" stroke="#254898" stroke-miterlimit="10" stroke-width="0.5"/><path d="M40.87,272V197.76a11.13,11.13,0,0,0-3.56-8.15h0a11.09,11.09,0,0,1-3.56-8.14v-9.74" fill="none" stroke="#254898" stroke-miterlimit="10" stroke-width="0.5"/><path d="M7.67,155.34h0A16.3,16.3,0,0,1,24,139H17A15.73,15.73,0,0,0,1.31,154.77h0a16.86,16.86,0,0,0,16.86,16.86H24A16.3,16.3,0,0,1,7.67,155.34Z" fill="none" stroke="#254898" stroke-miterlimit="10" stroke-width="0.5"/><path d="M61.4,191.86h0a8.15,8.15,0,0,1,8.14-8.15H61.33a7.58,7.58,0,0,0-7.58,7.58v1.25A7.46,7.46,0,0,0,61.21,200h8.33A8.15,8.15,0,0,1,61.4,191.86Z" fill="none" stroke="#254898" stroke-miterlimit="10" stroke-width="0.5"/><path d="M40.87,219.39h-5.8A7.08,7.08,0,0,1,28,212.31V205.7" fill="none" stroke="#254898" stroke-miterlimit="10" stroke-width="0.5"/><path d="M20.09,201.62a4.08,4.08,0,0,1,4.08-4.07H22.26a4.16,4.16,0,0,0-4.16,4.16,4,4,0,0,0,4,4h2.09A4.08,4.08,0,0,1,20.09,201.62Z" fill="none" stroke="#254898" stroke-miterlimit="10" stroke-width="0.5"/><path d="M383.08,272a19,19,0,0,0-19-19H348.36a19,19,0,0,0-19,19h53.72Z" fill="#0c152e" stroke="#254898" stroke-miterlimit="10" stroke-width="0.5"/><path d="M281.11,16.5h0c-.54,0-43.12-.83-34.71,11.44l7,7c.86,0,27.79,10.34,28.66,10.34h0a58.41,58.41,0,0,1,58.41,58.41V262h-61v9.82h78.79V93.67A77.18,77.18,0,0,0,281.11,16.5Z" fill="#254898" stroke="#254898" stroke-miterlimit="10" stroke-width="0.5"/><path d="M323.69,103.72a58.41,58.41,0,0,0-58.41-58.41h0a58.41,58.41,0,0,0-58.4,58.41V234.44H323.69Z" fill="none" stroke="#254898" stroke-miterlimit="10" stroke-width="0.5"/><path d="M341.48,93.67A77.17,77.17,0,0,0,264.3,16.5h0a77.18,77.18,0,0,0-77.18,77.17V271.81h19.76V103.72a58.41,58.41,0,0,1,58.4-58.41h0a58.41,58.41,0,0,1,58.41,58.41V271.81h17.79Z" fill="#f7f9fb" stroke="#254898" stroke-miterlimit="10" stroke-width="0.5"/><path d="M271.68,46.15a61.31,61.31,0,0,0-6.4-.35h0a58.41,58.41,0,0,0-58.4,58.41v167.6h12.79V104.21A58.41,58.41,0,0,1,271.68,46.15Z" fill="#254898" stroke="#254898" stroke-miterlimit="10" stroke-width="0.5"/><polygon points="323.91 272.05 323.91 201.07 317.77 201.07 317.77 218.81 301.81 218.81 301.81 236.55 285.86 236.55 285.86 254.3 271.35 254.3 271.35 272.05 323.91 272.05" fill="#101c3d" stroke="#254898" stroke-miterlimit="10" stroke-width="0.5"/><line x1="4.55" y1="271.81" x2="389.2" y2="271.81" fill="none" stroke="#254898" stroke-miterlimit="10" stroke-width="0.5"/><path d="M317.47,257.39a1.25,1.25,0,0,0,0-2.5,1.25,1.25,0,0,0,0,2.5Z" fill="#254898"/><rect x="170.33" y="240.83" width="30.99" height="30.99" transform="translate(371.65 512.64) rotate(-180)" fill="#dfe6f2" stroke="#254898" stroke-miterlimit="10" stroke-width="0.5"/><rect x="297.04" y="240.83" width="30.99" height="30.99" transform="translate(625.06 512.64) rotate(-180)" fill="#dfe6f2" stroke="#254898" stroke-miterlimit="10" stroke-width="0.5"/><rect x="328.07" y="240.83" width="30.22" height="30.99" transform="translate(686.35 512.64) rotate(-180)" fill="#254898" stroke="#254898" stroke-miterlimit="10" stroke-width="0.5"/><rect x="187.46" y="254.07" width="84.22" height="17.75" fill="#4a6fec"/><rect x="199.85" y="236.32" width="86.35" height="17.75" fill="#4a6fec"/><rect x="213.24" y="218.57" width="88.9" height="17.75" fill="#4a6fec"/><rect x="227.3" y="200.83" width="90.29" height="17.75" fill="#4a6fec"/><path d="M365.16,272a9.07,9.07,0,0,0-9.07-9.07h-7.5a9.07,9.07,0,0,0-9.07,9.07h25.64Z" fill="#0c152e" stroke="#254898" stroke-miterlimit="10" stroke-width="0.5"/><rect x="227.3" y="213.88" width="90.29" height="4.79" fill="#254898" stroke="#254898" stroke-miterlimit="10" stroke-width="0.5"/><rect x="213.24" y="231.53" width="89.03" height="4.79" fill="#254898" stroke="#254898" stroke-miterlimit="10" stroke-width="0.5"/><rect x="199.85" y="249.28" width="86.36" height="4.79" fill="#254898" stroke="#254898" stroke-miterlimit="10" stroke-width="0.5"/><rect x="20.09" y="197.55" width="14.33" height="8.15" rx="4.07" fill="#254898" stroke="#254898" stroke-miterlimit="10" stroke-width="0.5"/><rect width="390.54" height="278.09" fill="none" opacity="0"/></g></g></svg>