<?xml version="1.0" encoding="UTF-8"?>
<svg width="48px" height="48px" viewBox="0 0 48 48" version="1.1" xmlns="http://www.w3.org/2000/svg" xmlns:xlink="http://www.w3.org/1999/xlink">
    <!-- Generator: Sketch 51.3 (57544) - http://www.bohemiancoding.com/sketch -->
    <title>a-icon-Decentralized/white/48x48</title>
    <desc>Created with Sketch.</desc>
    <defs></defs>
    <g id="a-icon-Decentralized/white/48x48" stroke="none" stroke-width="1" fill="none" fill-rule="evenodd">
        <g id="Group-16" transform="translate(4.000000, 4.000000)">
            <g id="Group-15">
                <polygon id="Fill-1" fill="#DFE6F2" points="0 14.9991667 15 14.9991667 15 0 0 0"></polygon>
                <polygon id="Fill-2" fill="#DFE6F2" points="24.9258333 14.9991667 39.9258333 14.9991667 39.9258333 0 24.9258333 0"></polygon>
                <polygon id="Fill-3" fill="#DFE6F2" points="25 40 40 40 40 25 25 25"></polygon>
                <polygon id="Fill-4" fill="#DFE6F2" points="0 40 15 40 15 25 0 25"></polygon>
                <polygon id="Stroke-5" stroke="#4070F4" stroke-width="1.5" points="7.5 33.0516667 33.0516667 33.0516667 33.0516667 7.5 7.5 7.5"></polygon>
                <g id="Group-14" transform="translate(5.000000, 5.000000)" fill="#4070F4">
                    <path d="M4.99983333,2.49983333 C4.99983333,3.88066667 3.88066667,4.99983333 2.49983333,4.99983333 C1.119,4.99983333 -0.000166666667,3.88066667 -0.000166666667,2.49983333 C-0.000166666667,1.119 1.119,-0.000166666667 2.49983333,-0.000166666667 C3.88066667,-0.000166666667 4.99983333,1.119 4.99983333,2.49983333" id="Fill-6"></path>
                    <path d="M30.5515833,2.49983333 C30.5515833,3.88066667 29.4324167,4.99983333 28.0515833,4.99983333 C26.67075,4.99983333 25.5515833,3.88066667 25.5515833,2.49983333 C25.5515833,1.119 26.67075,-0.000166666667 28.0515833,-0.000166666667 C29.4324167,-0.000166666667 30.5515833,1.119 30.5515833,2.49983333" id="Fill-8"></path>
                    <path d="M4.99983333,27.4998333 C4.99983333,28.8806667 3.88066667,29.9998333 2.49983333,29.9998333 C1.119,29.9998333 -0.000166666667,28.8806667 -0.000166666667,27.4998333 C-0.000166666667,26.119 1.119,24.9998333 2.49983333,24.9998333 C3.88066667,24.9998333 4.99983333,26.119 4.99983333,27.4998333" id="Fill-10"></path>
                    <path d="M30.5515833,27.4998333 C30.5515833,28.8806667 29.4324167,29.9998333 28.0515833,29.9998333 C26.67075,29.9998333 25.5515833,28.8806667 25.5515833,27.4998333 C25.5515833,26.119 26.67075,24.9998333 28.0515833,24.9998333 C29.4324167,24.9998333 30.5515833,26.119 30.5515833,27.4998333" id="Fill-12"></path>
                </g>
            </g>
        </g>
        <rect id="Rectangle" fill-opacity="0" fill="#FFFFFF" x="0" y="0" width="48" height="48"></rect>
    </g>
</svg>