<svg xmlns="http://www.w3.org/2000/svg" xmlns:xlink="http://www.w3.org/1999/xlink" width="48" height="48" viewBox="0 0 48 48">
    <defs>
        <path id="a" d="M0 .375h38.514v37.976H0z"/>
    </defs>
    <g fill="none" fill-rule="evenodd">
        <g transform="translate(5 4.44)">
            <mask id="b" fill="#fff">
                <use xlink:href="#a"/>
            </mask>
            <path fill="#DFE6F2" d="M19.311 29.361c-5.75 0-10.41-4.432-10.41-9.898 0-5.468 4.66-9.9 10.41-9.9s10.41 4.432 10.41 9.9c0 5.466-4.66 9.898-10.41 9.898m18.757-6.944l-1.698-1.46c.133-1.33.103-2.67-.087-3.994l1.654-1.546c.406-.373.528-.959.305-1.46l-2.22-4.766a1.308 1.308 0 0 0-1.308-.774l-2.263.171a16.949 16.949 0 0 0-2.918-2.748V3.607a1.287 1.287 0 0 0-.827-1.245L23.829.472a1.317 1.317 0 0 0-1.48.344l-1.481 1.675a17.275 17.275 0 0 0-4.049.085L15.295.988a1.317 1.317 0 0 0-1.48-.3L8.938 2.833c-.515.22-.83.738-.784 1.289l.174 2.233A16.884 16.884 0 0 0 5.541 9.19H3.277a1.305 1.305 0 0 0-1.263.816L.098 14.859a1.278 1.278 0 0 0 .349 1.46l1.698 1.46a16.54 16.54 0 0 0 .087 3.995L.62 23.276c-.406.374-.529.96-.305 1.46l2.134 4.81c.221.508.747.819 1.306.773l2.264-.171a16.985 16.985 0 0 0 2.918 2.749v2.232c-.02.546.311 1.046.827 1.246l4.92 1.89.479.086c.381.007.747-.15 1.001-.43l1.482-1.674c1.348.13 2.707.1 4.049-.086l1.567 1.632c.379.4.973.52 1.48.3l4.877-2.104c.515-.22.83-.738.784-1.29l-.174-2.232a16.912 16.912 0 0 0 2.787-2.877h2.264c.554.02 1.06-.308 1.263-.817l1.872-4.896a1.276 1.276 0 0 0-.348-1.46" mask="url(#b)"/>
        </g>
        <path stroke="#4070F4" stroke-linejoin="round" stroke-width="1.5" d="M31.551 23.804c0 3.83-3.266 6.935-7.294 6.935-4.029 0-7.294-3.105-7.294-6.935 0-3.83 3.265-6.936 7.294-6.936 4.028 0 7.294 3.105 7.294 6.936z"/>
        <path fill="#FFF" fill-opacity="0" d="M0 0h48v48H0z"/>
    </g>
</svg>
