<?xml version="1.0" encoding="UTF-8"?>
<svg width="48px" height="48px" viewBox="0 0 48 48" version="1.1" xmlns="http://www.w3.org/2000/svg" xmlns:xlink="http://www.w3.org/1999/xlink">
    <!-- Generator: Sketch 51.3 (57544) - http://www.bohemiancoding.com/sketch -->
    <title>a-icon-DownloadHubMobile(LiskWallets)/white/48x48</title>
    <desc>Created with Sketch.</desc>
    <defs></defs>
    <g id="a-icon-DownloadHubMobile(LiskWallets)/white/48x48" stroke="none" stroke-width="1" fill="none" fill-rule="evenodd">
        <g id="Group-9" transform="translate(4.000000, 4.000000)">
            <g id="Group-8">
                <g id="Group-3">
                    <polygon id="Clip-2" points="8.33333333e-05 0.000166666667 40 0.000166666667 40 40 8.33333333e-05 40"></polygon>
                    <path d="M32.7359167,40.0001667 L7.26425,40.0001667 C3.25258333,40.0001667 8.33333333e-05,36.7476667 8.33333333e-05,32.736 L8.33333333e-05,7.2635 C8.33333333e-05,3.25183333 3.25258333,0.000166666667 7.26425,0.000166666667 L32.7359167,0.000166666667 C36.7475833,0.000166666667 40.0000833,3.25183333 40.0000833,7.2635 L40.0000833,32.736 C40.0000833,36.7476667 36.7475833,40.0001667 32.7359167,40.0001667" id="Fill-1" fill="#DFE6F2"></path>
                </g>
                <path d="M18.6559167,27.23575 L20.5500833,25.1074167 C20.58175,25.07325 20.55675,25.01825 20.5109167,25.01825 L18.4275833,25.01825 C18.4125833,25.01825 18.3975833,25.0124167 18.3875833,25.00075 L16.6184167,23.0149167 C16.6034167,22.9974167 16.6000833,22.9724167 16.61175,22.9515833 L19.56675,17.8790833 C19.5759167,17.8624167 19.5759167,17.8415833 19.56675,17.8249167 L18.3350833,15.71075 C18.31425,15.6749167 18.2634167,15.6749167 18.2425833,15.71075 L13.86425,23.22825 C13.8525833,23.24825 13.8550833,23.27325 13.8709167,23.29075 L17.3850833,27.23575 C17.3950833,27.2474167 17.4100833,27.2540833 17.4250833,27.2540833 L18.6159167,27.2540833 C18.6309167,27.2540833 18.6459167,27.2474167 18.6559167,27.23575" id="Fill-4" fill="#4070F4"></path>
                <path d="M19.9535,12.7728333 L18.7218333,14.887 C18.7126667,14.9036667 18.7126667,14.9245 18.7218333,14.9411667 L20.0001667,17.1345 L23.3876667,22.9511667 C23.3993333,22.9711667 23.3968333,22.9961667 23.3818333,23.0136667 L21.5968333,25.0186667 L19.686,27.1645 C19.6551667,27.1995 19.6793333,27.2536667 19.726,27.2536667 L22.5751667,27.2536667 C22.5901667,27.2536667 22.6043333,27.247 22.6143333,27.2353333 L26.1293333,23.2911667 C26.1451667,23.2736667 26.1476667,23.2478333 26.1351667,23.2278333 L20.046,12.7728333 C20.0251667,12.7378333 19.9743333,12.7378333 19.9535,12.7728333" id="Fill-6" fill="#4070F4"></path>
            </g>
        </g>
        <rect id="Rectangle" fill-opacity="0" fill="#FFFFFF" x="0" y="0" width="48" height="48"></rect>
    </g>
</svg>